<svg width="512" height="512" viewBox="0 0 512 512" xmlns="http://www.w3.org/2000/svg" role="img" aria-label="EduTest icon">
    <defs>
        <linearGradient id="g" x1="0" y1="0" x2="1" y2="1">
            <stop offset="0%" stop-color="#3b82f6"/>
            <stop offset="50%" stop-color="#10b981"/>
            <stop offset="100%" stop-color="#9333ea"/>
        </linearGradient>
        <filter id="s" x="-20%" y="-20%" width="140%" height="140%">
            <feDropShadow dx="0" dy="6" stdDeviation="12" flood-color="#000" flood-opacity="0.15"/>
        </filter>
    </defs>

    <!-- Contenedor redondeado -->
    <rect x="32" y="32" width="448" height="448" rx="56" fill="url(#g)" filter="url(#s)"/>

    <!-- Barras analíticas -->
    <g fill="#fff" opacity="0.95">
        <rect x="140" y="250" width="36" height="120" rx="8"/>
        <rect x="208" y="210" width="36" height="160" rx="8"/>
        <rect x="276" y="180" width="36" height="190" rx="8"/>
        <rect x="344" y="232" width="36" height="138" rx="8"/>
    </g>

    <!-- Birrete (educación) -->
    <g transform="translate(100,105)">
        <path d="M156 40L256 80L156 120L56 80Z" fill="#ffffff" opacity="0.98"/>
        <path d="M156 118c52 0 80 16 80 40v24c-40 24-120 24-160 0v-24c0-24 28-40 80-40z" fill="#eef2ff" opacity="0.98"/>
        <path d="M256 80v64" stroke="#ffffff" stroke-width="10" stroke-linecap="round"/>
        <circle cx="256" cy="150" r="10" fill="#ffffff"/>
    </g>

    <!-- Check (validación) -->
    <path d="M204 330l28 28 70-70" fill="none" stroke="#10b981" stroke-width="18" stroke-linecap="round" stroke-linejoin="round"/>
</svg>
